<svg width="32" height="32" viewBox="0 0 32 32" fill="currentColor" xmlns="http://www.w3.org/2000/svg">
<path fill-rule="evenodd" clip-rule="evenodd" d="M7.05654 7.05727C7.57724 6.53657 8.42146 6.53657 8.94216 7.05727L15.9993 14.1145L23.0565 7.05727C23.5772 6.53657 24.4215 6.53657 24.9422 7.05727C25.4629 7.57797 25.4629 8.42219 24.9422 8.94289L17.885 16.0001L24.9422 23.0573C25.4629 23.578 25.4629 24.4222 24.9422 24.9429C24.4215 25.4636 23.5772 25.4636 23.0565 24.9429L15.9993 17.8857L8.94216 24.9429C8.42146 25.4636 7.57724 25.4636 7.05654 24.9429C6.53584 24.4222 6.53584 23.578 7.05654 23.0573L14.1137 16.0001L7.05654 8.94289C6.53584 8.42219 6.53584 7.57797 7.05654 7.05727Z"/>
</svg>
