<svg width="22" height="22" viewBox="0 0 22 22" fill="currentColor" xmlns="http://www.w3.org/2000/svg">
<path fill-rule="evenodd" clip-rule="evenodd" d="M6.1 5.4C5.91435 5.4 5.7363 5.47375 5.60502 5.60503C5.47375 5.7363 5.4 5.91435 5.4 6.1V15.9C5.4 16.0857 5.47375 16.2637 5.60502 16.395C5.7363 16.5262 5.91435 16.6 6.1 16.6H8.9C9.2866 16.6 9.6 16.9134 9.6 17.3C9.6 17.6866 9.2866 18 8.9 18H6.1C5.54304 18 5.0089 17.7788 4.61508 17.3849C4.22125 16.9911 4 16.457 4 15.9V6.1C4 5.54305 4.22125 5.0089 4.61508 4.61508C5.0089 4.22125 5.54305 4 6.1 4H8.9C9.2866 4 9.6 4.3134 9.6 4.7C9.6 5.0866 9.2866 5.4 8.9 5.4H6.1Z"/>
<path fill-rule="evenodd" clip-rule="evenodd" d="M13.305 7.00503C13.5784 6.73166 14.0216 6.73166 14.295 7.00503L17.795 10.505C18.0683 10.7784 18.0683 11.2216 17.795 11.495L14.295 14.995C14.0216 15.2683 13.5784 15.2683 13.305 14.995C13.0317 14.7216 13.0317 14.2784 13.305 14.005L16.3101 11L13.305 7.99497C13.0317 7.72161 13.0317 7.27839 13.305 7.00503Z"/>
<path fill-rule="evenodd" clip-rule="evenodd" d="M8.2 11C8.2 10.6134 8.5134 10.3 8.9 10.3H17.3C17.6866 10.3 18 10.6134 18 11C18 11.3866 17.6866 11.7 17.3 11.7H8.9C8.5134 11.7 8.2 11.3866 8.2 11Z"/>
</svg>
